<?xml version="1.0" standalone="no"?><!DOCTYPE svg PUBLIC "-//W3C//DTD SVG 1.1//EN" "http://www.w3.org/Graphics/SVG/1.1/DTD/svg11.dtd"><svg t="1666857609957" class="icon" viewBox="0 0 1024 1024" version="1.1" xmlns="http://www.w3.org/2000/svg" p-id="6267" width="12" height="12" xmlns:xlink="http://www.w3.org/1999/xlink"><path d="M385.969231 571.864615l-22.055385-23.630769-122.88 11.027692-22.055384 23.63077 77.193846 77.193846z" fill="#d81e06" p-id="6268"></path><path d="M374.941538 559.261538l-11.027692-11.027692-122.88 11.027692-22.055384 23.63077 11.027692 11.027692 18.904615-18.904615z" fill="#d81e06" p-id="6269"></path><path d="M452.135385 638.030769l23.630769 22.055385-11.027692 122.88-23.63077 22.055384-77.193846-77.193846z" fill="#d81e06" p-id="6270"></path><path d="M464.738462 649.058462l11.027692 11.027692-11.027692 122.88-23.63077 22.055384-11.027692-11.027692 18.904615-18.904615z" fill="#d81e06" p-id="6271"></path><path d="M464.738462 604.947692l11.027692 11.027693-133.907692 133.907692-67.741539-67.741539 133.907692-133.907692 11.027693 11.027692z" fill="#d81e06" p-id="6272"></path><path d="M707.347692 360.763077l11.027693 11.027692-242.609231 244.184616-11.027692-11.027693-45.686154-45.686154-11.027693-11.027692 244.184616-242.609231 11.027692 11.027693z" fill="#d81e06" p-id="6273"></path><path d="M707.347692 360.763077l11.027693 11.027692-100.824616 100.824616-11.027692-11.027693-44.110769-44.110769-11.027693-11.027692 100.824616-100.824616 11.027692 11.027693z" fill="#d81e06" p-id="6274"></path><path d="M897.969231 192.196923L718.375385 371.790769l-11.027693-11.027692-44.110769-44.110769-11.027692-11.027693L831.803077 126.030769z" fill="#d81e06" p-id="6275"></path><path d="M897.969231 192.196923L831.803077 126.030769l33.083077-33.083077c55.138462-55.138462 144.935385-78.769231 144.935384-78.76923s-22.055385 89.796923-77.193846 144.935384L897.969231 192.196923z" fill="#d81e06" p-id="6276"></path><path d="M1005.095385 29.932308c3.150769-9.452308 4.726154-15.753846 4.726153-15.753846s-89.796923 22.055385-144.935384 78.76923L831.803077 126.030769l11.027692 11.027693 33.083077-33.083077c40.96-42.535385 100.824615-64.590769 129.181539-74.043077z" fill="#d81e06" p-id="6277"></path><path d="M1005.095385 29.932308c-9.452308 28.356923-31.507692 88.221538-74.043077 129.181538L897.969231 192.196923l-11.027693-11.027692 33.083077-33.083077c34.658462-34.658462 55.138462-80.344615 67.741539-111.852308l17.329231-6.301538zM628.578462 327.68l-11.027693-11.027692-99.249231 11.027692 55.138462 56.713846z" fill="#d81e06" p-id="6278"></path><path d="M617.550769 316.652308l-99.249231 11.027692 11.027693 11.027692 74.043077-7.876923z" fill="#d81e06" p-id="6279"></path><path d="M696.32 395.421538l11.027692 11.027693-11.027692 99.249231-56.713846-55.138462z" fill="#d81e06" p-id="6280"></path><path d="M707.347692 406.449231l-11.027692 99.249231-11.027692-11.027693 7.876923-74.043077zM561.845169 372.357908L617.550769 316.652308l11.137969 11.153723-55.7056 55.689846zM640.945231 450.339446l55.7056-55.7056 11.137969 11.137969-55.7056 55.7056zM364.276185 726.976985l89.166769-89.056493 11.137969 11.153723-89.166769 89.040739zM285.207631 649.026954l89.119507-89.119508 11.13797 11.153723-89.119508 89.103754z" fill="#d81e06" p-id="6281"></path><path d="M408.906831 549.257846l142.603815-142.588061 11.137969 11.137969-142.603815 142.572308z" fill="#d81e06" p-id="6282"></path><path d="M463.840492 604.9792l142.5408-142.651077 11.153723 11.137969-142.556553 142.651077z" fill="#d81e06" p-id="6283"></path><path d="M650.633846 305.656123L831.125662 125.180062l11.137969 11.137969-180.460308 180.476061z" fill="#d81e06" p-id="6284"></path><path d="M707.725785 361.377477L888.201846 180.917169l11.137969 11.137969-180.460307 180.460308z" fill="#d81e06" p-id="6285"></path><path d="M550.549662 405.771815l100.27323-100.257477 11.13797 11.13797-100.273231 100.257477z" fill="#d81e06" p-id="6286"></path><path d="M607.704615 461.493169l100.22597-100.288984 11.137969 11.122215-100.225969 100.304738z" fill="#d81e06" p-id="6287"></path><path d="M273.912123 682.456615l133.671385-133.687138 11.137969 11.153723-133.671385 133.671385z" fill="#d81e06" p-id="6288"></path><path d="M331.035569 738.146462l133.671385-133.671385 11.137969 11.137969-133.671385 133.671385z" fill="#d81e06" p-id="6289"></path><path d="M274.116923 690.018462c-1.575385 0-4.726154 0-6.301538-1.575385-3.150769-3.150769-3.150769-7.876923 0-11.027692L860.16 86.646154c3.150769-3.150769 7.876923-3.150769 11.027692 0s3.150769 7.876923 0 11.027692L280.418462 688.443077c-1.575385 1.575385-3.150769 1.575385-6.301539 1.575385zM341.858462 757.76c-1.575385 0-4.726154 0-6.301539-1.575385-3.150769-3.150769-3.150769-7.876923 0-11.027692L926.326154 152.812308c3.150769-3.150769 7.876923-3.150769 11.027692 0s3.150769 7.876923 0 11.027692L346.584615 754.609231c-1.575385 1.575385-3.150769 3.150769-4.726153 3.150769z" fill="#d81e06" p-id="6290"></path><path d="M932.627692 166.990769c-1.575385 0-4.726154 0-6.301538-1.575384-3.150769-3.150769-3.150769-7.876923 0-11.027693 53.563077-53.563077 75.618462-140.209231 75.618461-141.784615 1.575385-4.726154 4.726154-6.301538 9.452308-6.301539 4.726154 1.575385 6.301538 4.726154 6.301539 9.452308-1.575385 3.150769-23.630769 91.372308-80.344616 148.086154-1.575385 1.575385-3.150769 3.150769-4.726154 3.150769z" fill="#d81e06" p-id="6291"></path><path d="M864.886154 99.249231c-1.575385 0-4.726154 0-6.301539-1.575385-3.150769-3.150769-3.150769-7.876923 0-11.027692 56.713846-56.713846 144.935385-78.769231 148.086154-80.344616 4.726154-1.575385 7.876923 1.575385 9.452308 6.301539 1.575385 4.726154-1.575385 7.876923-6.301539 9.452308-1.575385 0-88.221538 22.055385-141.784615 75.618461 1.575385 1.575385-1.575385 1.575385-3.150769 1.575385zM897.969231 200.073846c-1.575385 0-4.726154 0-6.301539-1.575384l-66.166154-66.166154c-3.150769-3.150769-3.150769-7.876923 0-11.027693s7.876923-3.150769 11.027693 0l66.166154 66.166154c3.150769 3.150769 3.150769 7.876923 0 11.027693 0 1.575385-1.575385 1.575385-4.726154 1.575384zM341.858462 757.76c-1.575385 0-4.726154 0-6.301539-1.575385l-66.166154-66.166153c-3.150769-3.150769-3.150769-7.876923 0-11.027693s7.876923-3.150769 11.027693 0l66.166153 66.166154c3.150769 3.150769 3.150769 7.876923 0 11.027692-1.575385 0-3.150769 1.575385-4.726153 1.575385zM374.941538 567.138462c-1.575385 0-4.726154 0-6.301538-1.575385l-11.027692-11.027692c-3.150769-3.150769-3.150769-7.876923 0-11.027693s7.876923-3.150769 11.027692 0l11.027692 11.027693c3.150769 3.150769 3.150769 7.876923 0 11.027692 0 1.575385-3.150769 1.575385-4.726154 1.575385z" fill="#d81e06" p-id="6292"></path><path d="M241.033846 567.138462c-4.726154 0-7.876923-3.150769-7.876923-7.876924s3.150769-7.876923 7.876923-7.876923l122.88-11.027692c4.726154 0 7.876923 3.150769 7.876923 7.876923s-3.150769 7.876923-7.876923 7.876923l-122.88 11.027693z" fill="#d81e06" p-id="6293"></path><path d="M218.978462 590.769231c-1.575385 0-4.726154 0-6.301539-1.575385-3.150769-3.150769-3.150769-7.876923 0-11.027692l22.055385-22.055385c3.150769-3.150769 7.876923-3.150769 11.027692 0s3.150769 7.876923 0 11.027693l-22.055385 22.055384s-3.150769 1.575385-4.726153 1.575385z" fill="#d81e06" p-id="6294"></path><path d="M285.144615 656.935385c-1.575385 0-4.726154 0-6.301538-1.575385l-66.166154-66.166154c-3.150769-3.150769-3.150769-7.876923 0-11.027692s7.876923-3.150769 11.027692 0l66.166154 66.166154c3.150769 3.150769 3.150769 7.876923 0 11.027692 0 1.575385-1.575385 1.575385-4.726154 1.575385zM475.766154 667.963077c-1.575385 0-4.726154 0-6.301539-1.575385l-11.027692-11.027692c-3.150769-3.150769-3.150769-7.876923 0-11.027692s7.876923-3.150769 11.027692 0l11.027693 11.027692c3.150769 3.150769 3.150769 7.876923 0 11.027692-1.575385 1.575385-3.150769 1.575385-4.726154 1.575385z" fill="#d81e06" p-id="6295"></path><path d="M464.738462 790.843077c-1.575385 0-1.575385 0 0 0-4.726154 0-7.876923-4.726154-7.876924-7.876923l11.027693-122.88c0-4.726154 4.726154-7.876923 7.876923-7.876923 4.726154 0 7.876923 4.726154 7.876923 7.876923l-11.027692 122.88c-1.575385 4.726154-4.726154 7.876923-7.876923 7.876923z" fill="#d81e06" p-id="6296"></path><path d="M441.107692 812.898462c-1.575385 0-4.726154 0-6.301538-1.575385-3.150769-3.150769-3.150769-7.876923 0-11.027692l22.055384-22.055385c3.150769-3.150769 7.876923-3.150769 11.027693 0s3.150769 7.876923 0 11.027692l-22.055385 22.055385c0 1.575385-1.575385 1.575385-4.726154 1.575385z" fill="#d81e06" p-id="6297"></path><path d="M441.107692 812.898462c-1.575385 0-4.726154 0-6.301538-1.575385l-66.166154-66.166154c-3.150769-3.150769-3.150769-7.876923 0-11.027692s7.876923-3.150769 11.027692 0l66.166154 66.166154c3.150769 3.150769 3.150769 7.876923 0 11.027692 0 1.575385-1.575385 1.575385-4.726154 1.575385zM330.830769 701.046154c-1.575385 0-4.726154 0-6.301538-1.575385-3.150769-3.150769-3.150769-7.876923 0-11.027692l89.796923-89.796923c3.150769-3.150769 7.876923-3.150769 11.027692 0s3.150769 7.876923 0 11.027692l-89.796923 89.796923c-1.575385 1.575385-3.150769 1.575385-4.726154 1.575385zM475.766154 623.852308c-1.575385 0-4.726154 0-6.301539-1.575385l-66.166153-66.166154c-3.150769-3.150769-3.150769-7.876923 0-11.027692s7.876923-3.150769 11.027692 0l66.166154 66.166154c3.150769 3.150769 3.150769 7.876923 0 11.027692-1.575385 0-3.150769 1.575385-4.726154 1.575385zM696.32 513.575385s-1.575385 0 0 0c-4.726154 0-7.876923-4.726154-7.876923-9.452308l11.027692-100.824615c0-4.726154 4.726154-7.876923 9.452308-6.301539 4.726154 0 7.876923 4.726154 6.301538 9.452308l-11.027692 100.824615c0 3.150769-4.726154 6.301538-7.876923 6.301539z" fill="#d81e06" p-id="6298"></path><path d="M696.32 513.575385c-1.575385 0-4.726154 0-6.301538-1.575385L645.907692 467.889231c-3.150769-3.150769-3.150769-7.876923 0-11.027693s7.876923-3.150769 11.027693 0l44.110769 44.11077c3.150769 3.150769 3.150769 7.876923 0 11.027692-1.575385 1.575385-3.150769 1.575385-4.726154 1.575385zM518.301538 335.556923c-4.726154 0-7.876923-3.150769-7.876923-6.301538 0-4.726154 3.150769-7.876923 6.301539-9.452308l100.824615-11.027692c4.726154 0 7.876923 3.150769 9.452308 6.301538 0 4.726154-3.150769 7.876923-6.301539 9.452308l-102.4 11.027692z" fill="#d81e06" p-id="6299"></path><path d="M562.412308 379.667692c-1.575385 0-4.726154 0-6.301539-1.575384l-44.110769-44.11077c-3.150769-3.150769-3.150769-7.876923 0-11.027692s7.876923-3.150769 11.027692 0l44.11077 44.110769c3.150769 3.150769 3.150769 7.876923 0 11.027693 0 1.575385-3.150769 1.575385-4.726154 1.575384zM606.523077 425.353846c-1.575385 0-4.726154 0-6.301539-1.575384-3.150769-3.150769-3.150769-7.876923 0-11.027693l55.138462-55.138461c3.150769-3.150769 7.876923-3.150769 11.027692 0s3.150769 7.876923 0 11.027692l-55.138461 55.138462s-1.575385 1.575385-4.726154 1.575384zM718.375385 379.667692c-1.575385 0-4.726154 0-6.301539-1.575384L645.907692 311.926154c-3.150769-3.150769-3.150769-7.876923 0-11.027692s7.876923-3.150769 11.027693 0l66.166153 66.166153c3.150769 3.150769 3.150769 7.876923 0 11.027693 0 1.575385-3.150769 1.575385-4.726153 1.575384zM617.550769 480.492308c-1.575385 0-4.726154 0-6.301538-1.575385l-66.166154-66.166154c-3.150769-3.150769-3.150769-7.876923 0-11.027692s7.876923-3.150769 11.027692 0l66.166154 66.166154c3.150769 3.150769 3.150769 7.876923 0 11.027692 0 1.575385-1.575385 1.575385-4.726154 1.575385zM17.329231 1014.547692c-1.575385 0-4.726154 0-6.301539-1.575384-3.150769-3.150769-3.150769-7.876923 0-11.027693L236.307692 776.664615c3.150769-3.150769 7.876923-3.150769 11.027693 0s3.150769 7.876923 0 11.027693L23.630769 1012.972308c-1.575385 1.575385-4.726154 1.575385-6.301538 1.575384zM173.292308 924.750769c-1.575385 0-4.726154 0-6.301539-1.575384-3.150769-3.150769-3.150769-7.876923 0-11.027693l146.510769-146.510769c3.150769-3.150769 7.876923-3.150769 11.027693 0s3.150769 7.876923 0 11.027692l-146.510769 146.51077c0 1.575385-3.150769 1.575385-4.726154 1.575384zM263.089231 768.787692c-1.575385 0-4.726154 0-6.301539-1.575384-3.150769-3.150769-3.150769-7.876923 0-11.027693l22.055385-22.055384c3.150769-3.150769 7.876923-3.150769 11.027692 0s3.150769 7.876923 0 11.027692L267.815385 767.212308s-3.150769 1.575385-4.726154 1.575384zM129.181538 968.861538c-1.575385 0-4.726154 0-6.301538-1.575384-3.150769-3.150769-3.150769-7.876923 0-11.027692l22.055385-22.055385c3.150769-3.150769 7.876923-3.150769 11.027692 0s3.150769 7.876923 0 11.027692l-22.055385 22.055385c0 1.575385-1.575385 1.575385-4.726154 1.575384zM107.126154 858.584615c-1.575385 0-4.726154 0-6.301539-1.575384-3.150769-3.150769-3.150769-7.876923 0-11.027693l146.51077-146.510769c3.150769-3.150769 7.876923-3.150769 11.027692 0s3.150769 7.876923 0 11.027693l-146.510769 146.510769c-1.575385 1.575385-3.150769 1.575385-4.726154 1.575384zM63.015385 902.695385c-1.575385 0-4.726154 0-6.301539-1.575385-3.150769-3.150769-3.150769-7.876923 0-11.027692L80.344615 866.461538c3.150769-3.150769 7.876923-3.150769 11.027693 0s3.150769 7.876923 0 11.027693l-22.055385 22.055384c-3.150769 1.575385-4.726154 3.150769-6.301538 3.15077z" fill="#d81e06" p-id="6300"></path></svg>