<?xml version="1.0" standalone="no"?><!DOCTYPE svg PUBLIC "-//W3C//DTD SVG 1.1//EN" "http://www.w3.org/Graphics/SVG/1.1/DTD/svg11.dtd"><svg t="1667803392457" class="icon" viewBox="0 0 1024 1024" version="1.1" xmlns="http://www.w3.org/2000/svg" p-id="4595" width="32" height="32" xmlns:xlink="http://www.w3.org/1999/xlink"><path d="M560 961a36 36 0 0 1-34-24.1c-33.33-95.12-38.75-193.31-16.1-291.85 20.92-91 65.23-180.22 131.71-265.24a36 36 0 0 1 59.5 4.12L752 471.55l121.43-287-310.62-40.41 57.33 98.79a36 36 0 0 1-17.45 51.37C447.63 358 338.48 435.31 278.26 524c-32.57 48-54.71 95.1-69.67 148.31-15.91 56.62-24.29 123.44-25.59 204.27A36 36 0 0 1 147 912h-0.59A36 36 0 0 1 111 875.42c2.75-169.7 34-283.22 107.69-391.84 63.05-92.88 170.19-173.41 318.77-239.67l-73.6-126.84a36 36 0 0 1 35.79-53.77l430 56a36 36 0 0 1 28.5 49.7l-168 397a36 36 0 0 1-64.29 4l-59.27-102.12c-42.43 63.12-71.45 127.9-86.49 193.31-19.55 85.07-14.89 169.81 13.9 251.9A36 36 0 0 1 560 961z" p-id="4596"></path></svg>