<?xml version="1.0" standalone="no"?><!DOCTYPE svg PUBLIC "-//W3C//DTD SVG 1.1//EN" "http://www.w3.org/Graphics/SVG/1.1/DTD/svg11.dtd"><svg t="1667809077161" class="icon" viewBox="0 0 1024 1024" version="1.1" xmlns="http://www.w3.org/2000/svg" p-id="40950" xmlns:xlink="http://www.w3.org/1999/xlink" width="32" height="32"><path d="M768 680.384v64.96l128 128v-320.96l-128 128zM763.136 640L896 507.136V128h-42.816L704 303.136V416h-107.072l-87.68 88.352L644.864 640h118.272zM674.848 288l136.32-160H443.616l160 160h71.232zM576 305.6L398.4 128H128v362.24L255.616 608h105.728L576 391.648V305.6zM247.136 643.744L128 533.76v300.992l119.136-119.136v-71.904zM272 736L128 880v16h361.504l149.888-158.112 0.608 0.576v-58.08l-153.28-153.28-111.584 112.416V736H272z m382.944 32l-121.344 128h339.776l-128-128h-90.432z m272 136.288l0.544 0.576-1.056 1.088c-3.2 9.664-10.816 17.28-20.48 20.48l-1.088 1.056-0.576-0.576c-2.656 0.704-5.44 1.088-8.288 1.088H128a32 32 0 0 1-32-32V128a32 32 0 0 1 32-32h768a32 32 0 0 1 32 32v768c0 2.88-0.384 5.632-1.088 8.288z" p-id="40951"></path></svg>