<?xml version="1.0" standalone="no"?><!DOCTYPE svg PUBLIC "-//W3C//DTD SVG 1.1//EN" "http://www.w3.org/Graphics/SVG/1.1/DTD/svg11.dtd"><svg t="1667896515588" class="icon" viewBox="0 0 1024 1024" version="1.1" xmlns="http://www.w3.org/2000/svg" p-id="42144" xmlns:xlink="http://www.w3.org/1999/xlink" width="32" height="32"><path d="M938.666667 443.733333V140.8c0-25.6-21.333333-46.933333-46.933334-46.933333h-315.733333c-25.6 0-46.933333 21.333333-46.933333 46.933333v302.933333c0 25.6 21.333333 46.933333 46.933333 46.933334h315.733333c25.6 0 46.933333-21.333333 46.933334-46.933334zM132.266667 537.6c-25.6 0-46.933333 21.333333-46.933334 46.933333v302.933334c0 25.6 21.333333 46.933333 46.933334 46.933333h315.733333c25.6 0 46.933333-21.333333 46.933333-46.933333v-302.933334c0-25.6-21.333333-46.933333-46.933333-46.933333H132.266667z m174.933333-204.8H260.266667c0-81.066667 68.266667-149.333333 149.333333-149.333333h17.066667c12.8 0 21.333333-8.533333 21.333333-21.333334V106.666667c0-12.8-8.533333-21.333333-21.333333-21.333334h-17.066667C273.066667 85.333333 162.133333 196.266667 162.133333 332.8H106.666667c-8.533333 0-12.8 8.533333-12.8 17.066667 0 4.266667 0 4.266667 4.266666 8.533333l93.866667 106.666667c8.533333 8.533333 21.333333 8.533333 29.866667 0l93.866666-106.666667c4.266667-4.266667 4.266667-12.8 0-17.066667-4.266667-4.266667-4.266667-8.533333-8.533333-8.533333z m409.6 358.4h46.933333c0 81.066667-68.266667 149.333333-149.333333 149.333333H597.333333c-12.8 0-21.333333 8.533333-21.333333 21.333334v59.733333c0 12.8 8.533333 21.333333 21.333333 21.333333h17.066667c136.533333 0 247.466667-110.933333 247.466667-247.466666h55.466666c8.533333 0 12.8-4.266667 12.8-12.8 0-4.266667 0-4.266667-4.266666-8.533334l-93.866667-106.666666c-8.533333-8.533333-21.333333-8.533333-29.866667 0l-93.866666 106.666666c-4.266667 4.266667-4.266667 12.8 0 17.066667 0-4.266667 4.266667 0 8.533333 0z" p-id="42145"></path></svg>